USFL
nRows=225
nColumns=2
inDegrees=yes
endheader
time	tib_ant_r	
2.99395	 64.089467	
3.02722	 64.132366	
3.06048	 64.122050	
3.09375	 64.155597	
3.12702	 64.152315	
3.16028	 64.132679	
3.19355	 64.139623	
3.22681	 64.159333	
3.26008	 64.149654	
3.29335	 64.170005	
3.32661	 64.167806	
3.35988	 64.188834	
3.39315	 64.197312	
3.42641	 64.151015	
3.45968	 64.204194	
3.49294	 64.266360	
3.52621	 64.188881	
3.55948	 64.129430	
3.59274	 64.158925	
3.62601	 64.141620	
3.65927	 64.127514	
3.69254	 64.137712	
3.72581	 64.149435	
3.75907	 64.112421	
3.79234	 64.130578	
3.8256	 64.151570	
3.85887	 64.145442	
3.89214	 64.139377	
3.9254	 64.133674	
3.95867	 64.145321	
3.99194	 64.142154	
4.0252	 64.131783	
4.05847	 64.117665	
4.09173	 64.118116	
4.125	 64.131641	
4.15827	 64.127022	
4.19153	 64.128394	
4.2248	 64.123606	
4.25806	 64.129239	
4.29133	 64.148448	
4.3246	 64.109863	
4.35786	 64.107383	
4.39113	 64.147393	
4.4244	 64.118946	
4.45766	 64.094965	
4.49093	 64.077889	
4.52419	 64.074820	
4.55746	 64.032412	
4.59073	 64.027027	
4.62399	 63.993583	
4.65726	 64.006604	
4.69052	 64.036122	
4.72379	 64.105823	
4.75706	 64.037161	
4.79032	 63.469472	
4.82359	 62.798964	
4.85685	 62.094436	
4.89012	 61.614722	
4.92339	 61.523560	
4.95665	 61.483375	
4.98992	 61.193685	
5.02319	 61.302095	
5.05645	 61.332696	
5.08972	 60.914121	
5.12298	 60.709700	
5.15625	 59.708556	
5.18952	 59.555706	
5.22278	 59.535060	
5.25605	 59.450493	
5.28931	 59.189113	
5.32258	 59.064464	
5.35585	 58.789326	
5.38911	 58.841368	
5.42238	 58.871906	
5.45565	 58.209921	
5.48891	 58.284725	
5.52218	 58.229192	
5.55544	 57.962663	
5.58871	 57.714537	
5.62198	 57.465586	
5.65524	 57.569901	
5.68851	 57.631728	
5.72177	 57.840524	
5.75504	 57.700726	
5.78831	 57.413461	
5.82157	 57.409151	
5.85484	 57.309870	
5.8881	 57.019225	
5.92137	 56.906387	
5.95464	 56.751470	
5.9879	 56.678638	
6.02117	 56.836590	
6.05444	 56.651966	
6.0877	 56.746972	
6.12097	 56.909563	
6.15423	 56.756351	
6.1875	 56.637804	
6.22077	 56.739919	
6.25403	 56.639728	
6.2873	 56.701042	
6.32056	 56.688276	
6.35383	 56.591490	
6.3871	 56.689739	
6.42036	 56.540520	
6.45363	 56.527012	
6.4869	 56.535552	
6.52016	 56.427110	
6.55343	 56.324910	
6.58669	 56.470259	
6.61996	 56.493011	
6.65323	 56.419908	
6.68649	 56.347805	
6.71976	 56.471401	
6.75302	 56.309971	
6.78629	 56.150587	
6.81956	 56.175265	
6.85282	 56.176503	
6.88609	 56.215894	
6.91935	 56.165659	
6.95262	 55.978713	
6.98589	 55.966763	
7.01915	 55.990037	
7.05242	 56.087988	
7.08569	 56.158351	
7.11895	 56.050652	
7.15222	 56.029189	
7.18548	 56.039308	
7.21875	 55.925373	
7.25202	 55.995285	
7.28528	 56.002750	
7.31855	 55.955444	
7.35181	 55.973379	
7.38508	 55.952169	
7.41835	 55.945050	
7.45161	 55.933601	
7.48488	 55.934094	
7.51815	 55.886747	
7.55141	 55.816571	
7.58468	 55.787961	
7.61794	 55.909748	
7.65121	 55.844383	
7.68448	 55.814442	
7.71774	 55.912624	
7.75101	 55.808842	
7.78427	 55.747763	
7.81754	 55.726432	
7.85081	 55.725189	
7.88407	 55.643096	
7.91734	 55.876329	
7.9506	 55.743598	
7.98387	 55.770776	
8.01714	 55.684132	
8.0504	 55.784341	
8.08367	 55.672695	
8.11694	 55.675660	
8.1502	 55.573662	
8.18347	 55.602814	
8.21673	 55.662685	
8.25	 55.621312	
8.28327	 55.567850	
8.31653	 55.698372	
8.3498	 55.623797	
8.38306	 55.707322	
8.41633	 55.542739	
8.4496	 55.715523	
8.48286	 55.476362	
8.51613	 55.582793	
8.5494	 55.617468	
8.58266	 55.470776	
8.61593	 55.408987	
8.64919	 55.394295	
8.68246	 55.393291	
8.71573	 55.448567	
8.74899	 55.447874	
8.78226	 55.439013	
8.81552	 55.428152	
8.84879	 55.563902	
8.88206	 55.432744	
8.91532	 55.478275	
8.94859	 55.530823	
8.98185	 55.369528	
9.01512	 55.502181	
9.04839	 55.374730	
9.08165	 55.373420	
9.11492	 55.380733	
9.14819	 55.478663	
9.18145	 55.618213	
9.21472	 55.608881	
9.24798	 55.429568	
9.28125	 55.407304	
9.31452	 55.391667	
9.34778	 55.262105	
9.38105	 55.379966	
9.41431	 55.411219	
9.44758	 55.422929	
9.48085	 55.215411	
9.51411	 55.148015	
9.54738	 55.055887	
9.58065	 55.223671	
9.61391	 55.456599	
9.64718	 55.586119	
9.68044	 55.765157	
9.71371	 55.977302	
9.74698	 56.212227	
9.78024	 56.572010	
9.81351	 56.774361	
9.84677	 56.519613	
9.88004	 57.089896	
9.91331	 57.398716	
9.94657	 57.676389	
9.97984	 57.747249	
10.0131	 58.133091	
10.0464	 58.581989	
10.0796	 58.855629	
10.1129	 59.133333	
10.1462	 59.516586	
10.1794	 59.954240	
10.2127	 59.990571	
10.246	 60.278415	
10.2792	 60.568009	
10.3125	 61.054904	
10.3458	 61.416250	
10.379	 61.835549	
10.4123	 62.309636	
10.4456	 63.079077	
